# xmcd CD database file
#
# Track frame offsets:
#	150
#	9667
#	19417
#	30010
#	40857
#	55770
#	69515
#	78447
#	92472
#	101530
#	118647
#	126652
#	139095
#	152905
#
# Disc length: 2230 seconds
#
# Revision: 0
# Processed by: cddbd v1.5.1PL2 Copyright (c) Steve Scherf et al.
# Submitted via: CDex 1.51
#
DISCID=af08b40e
DTITLE=* Various - Noel Country (vol.2)
DYEAR=1900
DGENRE=Country
TTITLE0=Julie Daraiche  -  Noel dans mon village
TTITLE1=Larry Robichaud  -  Noel du Cowboy
TTITLE2=Aldei Duguay  -  le Noel du Mendiant
TTITLE3=La Bolduc  -  le bas de Noel
TTITLE4=Ti-Blanc Richard  -  reel de Noel no.2
TTITLE5=Levis Boulianne  -  Noel dans mon Église
TTITLE6=Marie King  -  Tintin le lutin
TTITLE7=Normand Racine  -  je voudrais pour Noel
TTITLE8=Marthe Fleurant  -  frappons du talon
TTITLE9=Monsieur Pointu  -  reel de la pointe
TTITLE10=Aldei  Duguay  -  la neige tombe
TTITLE11=Famille Marineau  -  c'est dans notre village
TTITLE12=Marcel Martel  -  par la cheminée
TTITLE13=André Breton  -  Noel en mer
EXTD=
EXTT0=
EXTT1=
EXTT2=
EXTT3=
EXTT4=
EXTT5=
EXTT6=
EXTT7=
EXTT8=
EXTT9=
EXTT10=
EXTT11=
EXTT12=
EXTT13=
PLAYORDER=
